<svg xmlns="http://www.w3.org/2000/svg" width="1000" height="356" viewBox="0 0 1000 356" role="img" aria-label="Skill levels: Python 80%, Linux 45%, Git / GitHub 40%, Network+ 35%, HTML / CSS 30%, C / C++ 25%">
  <title>$ ./progress.sh</title>
  <defs>
    <linearGradient id="bgk" x1="0" y1="0" x2="1" y2="1">
      <stop offset="0%" stop-color="#0a0e14"/><stop offset="100%" stop-color="#050a10"/>
    </linearGradient>
    <linearGradient id="fillk" gradientUnits="userSpaceOnUse"
                    x1="168" y1="0" x2="568" y2="0">
      <stop offset="0%" stop-color="#00ff88"/>
      <stop offset="55%" stop-color="#00e5a0"/>
      <stop offset="100%" stop-color="#00c8ff"/>
    </linearGradient>
    <linearGradient id="rulek" x1="0" y1="0" x2="1" y2="0">
      <stop offset="0%" stop-color="#00ff88" stop-opacity="0"/>
      <stop offset="26%" stop-color="#00ff88" stop-opacity="0.85"/>
      <stop offset="100%" stop-color="#00c8ff" stop-opacity="0"/>
    </linearGradient>
    <linearGradient id="shinek" x1="0" y1="0" x2="1" y2="0">
      <stop offset="0%" stop-color="#ffffff" stop-opacity="0"/>
      <stop offset="50%" stop-color="#ffffff" stop-opacity="0.42"/>
      <stop offset="100%" stop-color="#ffffff" stop-opacity="0"/>
    </linearGradient>
    <linearGradient id="trackk" x1="0" y1="0" x2="0" y2="1">
      <stop offset="0%" stop-color="#000000" stop-opacity="0.5"/>
      <stop offset="60%" stop-color="#000000" stop-opacity="0"/>
      <stop offset="100%" stop-color="#ffffff" stop-opacity="0.05"/>
    </linearGradient>
    <linearGradient id="glossk" x1="0" y1="0" x2="0" y2="1">
      <stop offset="0%" stop-color="#ffffff" stop-opacity="0.34"/>
      <stop offset="44%" stop-color="#ffffff" stop-opacity="0.05"/>
      <stop offset="56%" stop-color="#000000" stop-opacity="0.04"/>
      <stop offset="100%" stop-color="#000000" stop-opacity="0.3"/>
    </linearGradient>
    <pattern id="gridk" width="26" height="26" patternUnits="userSpaceOnUse">
      <path d="M26 0H0v26" fill="none" stroke="#00ff88" stroke-opacity="0.04"/>
    </pattern>
    <linearGradient id="chromek" x1="0" y1="0" x2="0" y2="1">
      <stop offset="0%" stop-color="#ffffff" stop-opacity="0.05"/>
      <stop offset="100%" stop-color="#000000" stop-opacity="0.25"/>
    </linearGradient>
    <clipPath id="cardk"><rect width="1000" height="356" rx="14"/></clipPath>
  </defs>
  <style>
    /* see the note in shell(): font-size stays off the class so the per-element
       font-size="…" attributes on the footnote lines are not overridden */
    .mk { font-family: ui-monospace, "SFMono-Regular", "JetBrains Mono", "Cascadia Code", Menlo, Consolas, "DejaVu Sans Mono", monospace; letter-spacing: 0.2px; }
    .sh { animation: sh 5.2s ease-in-out infinite; }
    @keyframes sh {
      0%      { transform: translateX(0) }
      55%,
      100%    { transform: translateX(620px) }
    }
    .edge { animation: edge 9s linear infinite; }
    @keyframes edge {
      0%   { transform: translateX(0) }
      100% { transform: translateX(1260px) }
    }
  </style>
  <g clip-path="url(#cardk)">
    <rect width="1000" height="356" fill="url(#bgk)"/>
    <rect width="1000" height="356" fill="url(#gridk)"/>
    <rect width="1000" height="40" fill="#0d1117"/>
    <rect width="1000" height="40" fill="url(#chromek)"/>
    <circle cx="28" cy="20" r="5.5" fill="#ff5f57"/>
    <circle cx="49" cy="20" r="5.5" fill="#febc2e"/>
    <circle cx="70" cy="20" r="5.5" fill="#28c840"/>
    <text class="mk" x="500" y="25" font-size="12.5"
          text-anchor="middle" letter-spacing="0.4"><tspan fill="#8b949e">hamid@arch</tspan><tspan fill="#484f58">: ~/progress</tspan></text>
    <path d="M0 40h1000" stroke="#30363d" stroke-opacity="0.8"/>
    <path d="M0 0.5h1000" stroke="#ffffff" stroke-opacity="0.09"/>
    <rect class="edge" x="-260" y="0" width="260" height="2" fill="url(#rulek)"/>
    <g font-size="13">
      <text class="mk" x="28" y="62"><tspan fill="#00c8ff">hamid@arch</tspan><tspan fill="#484f58">:~</tspan><tspan fill="#00ff88">$ </tspan><tspan fill="#f0f6fc">./progress.sh</tspan><tspan fill="#484f58" dx="16">#</tspan><tspan fill="#6e7681" dx="8">self-assessed, not rounded up</tspan></text>
      <text class="mk" x="28" y="96" fill="#8b949e">Python</text>
      <clipPath id="c0"><rect x="168" y="89.0" width="320.0" height="12" rx="6.0"/></clipPath>
      <rect x="168" y="91.0" width="400" height="12" rx="6.0" fill="#000000" fill-opacity="0.45"/>
      <rect x="168" y="89.0" width="400" height="12" rx="6.0" fill="#161b22"/>
      <rect x="168" y="89.0" width="400" height="12" rx="6.0" fill="url(#trackk)"/>
      <path d="M268.0 89.0v12" stroke="#ffffff" stroke-opacity="0.05"/>
      <path d="M368.0 89.0v12" stroke="#ffffff" stroke-opacity="0.05"/>
      <path d="M468.0 89.0v12" stroke="#ffffff" stroke-opacity="0.05"/>
      <rect x="168" y="89.0" width="320.0" height="12" rx="6.0" fill="url(#fillk)"/>
      <rect x="168" y="89.0" width="320.0" height="12" rx="6.0" fill="url(#glossk)"/>
      <g clip-path="url(#c0)"><rect class="sh" x="58" y="89.0" width="110" height="12" fill="url(#shinek)" style="animation-delay:0.00s"/></g>
      <text class="mk" x="612" y="96" fill="#f0f6fc" text-anchor="end" font-weight="600">80%</text>
      <text class="mk" x="644" y="96" fill="#6e7681">OOP · files · bots · automation</text>
      <text class="mk" x="28" y="130" fill="#8b949e">Linux</text>
      <clipPath id="c1"><rect x="168" y="123.0" width="180.0" height="12" rx="6.0"/></clipPath>
      <rect x="168" y="125.0" width="400" height="12" rx="6.0" fill="#000000" fill-opacity="0.45"/>
      <rect x="168" y="123.0" width="400" height="12" rx="6.0" fill="#161b22"/>
      <rect x="168" y="123.0" width="400" height="12" rx="6.0" fill="url(#trackk)"/>
      <path d="M268.0 123.0v12" stroke="#ffffff" stroke-opacity="0.05"/>
      <path d="M368.0 123.0v12" stroke="#ffffff" stroke-opacity="0.05"/>
      <path d="M468.0 123.0v12" stroke="#ffffff" stroke-opacity="0.05"/>
      <rect x="168" y="123.0" width="180.0" height="12" rx="6.0" fill="url(#fillk)"/>
      <rect x="168" y="123.0" width="180.0" height="12" rx="6.0" fill="url(#glossk)"/>
      <g clip-path="url(#c1)"><rect class="sh" x="58" y="123.0" width="110" height="12" fill="url(#shinek)" style="animation-delay:0.42s"/></g>
      <text class="mk" x="612" y="130" fill="#f0f6fc" text-anchor="end" font-weight="600">45%</text>
      <text class="mk" x="644" y="130" fill="#6e7681">daily driver · bash · systemd basics</text>
      <text class="mk" x="28" y="164" fill="#8b949e">Git / GitHub</text>
      <clipPath id="c2"><rect x="168" y="157.0" width="160.0" height="12" rx="6.0"/></clipPath>
      <rect x="168" y="159.0" width="400" height="12" rx="6.0" fill="#000000" fill-opacity="0.45"/>
      <rect x="168" y="157.0" width="400" height="12" rx="6.0" fill="#161b22"/>
      <rect x="168" y="157.0" width="400" height="12" rx="6.0" fill="url(#trackk)"/>
      <path d="M268.0 157.0v12" stroke="#ffffff" stroke-opacity="0.05"/>
      <path d="M368.0 157.0v12" stroke="#ffffff" stroke-opacity="0.05"/>
      <path d="M468.0 157.0v12" stroke="#ffffff" stroke-opacity="0.05"/>
      <rect x="168" y="157.0" width="160.0" height="12" rx="6.0" fill="url(#fillk)"/>
      <rect x="168" y="157.0" width="160.0" height="12" rx="6.0" fill="url(#glossk)"/>
      <g clip-path="url(#c2)"><rect class="sh" x="58" y="157.0" width="110" height="12" fill="url(#shinek)" style="animation-delay:0.84s"/></g>
      <text class="mk" x="612" y="164" fill="#f0f6fc" text-anchor="end" font-weight="600">40%</text>
      <text class="mk" x="644" y="164" fill="#6e7681">branch · remote · actions basics</text>
      <text class="mk" x="28" y="198" fill="#8b949e">Network+</text>
      <clipPath id="c3"><rect x="168" y="191.0" width="140.0" height="12" rx="6.0"/></clipPath>
      <rect x="168" y="193.0" width="400" height="12" rx="6.0" fill="#000000" fill-opacity="0.45"/>
      <rect x="168" y="191.0" width="400" height="12" rx="6.0" fill="#161b22"/>
      <rect x="168" y="191.0" width="400" height="12" rx="6.0" fill="url(#trackk)"/>
      <path d="M268.0 191.0v12" stroke="#ffffff" stroke-opacity="0.05"/>
      <path d="M368.0 191.0v12" stroke="#ffffff" stroke-opacity="0.05"/>
      <path d="M468.0 191.0v12" stroke="#ffffff" stroke-opacity="0.05"/>
      <rect x="168" y="191.0" width="140.0" height="12" rx="6.0" fill="url(#fillk)"/>
      <rect x="168" y="191.0" width="140.0" height="12" rx="6.0" fill="url(#glossk)"/>
      <g clip-path="url(#c3)"><rect class="sh" x="58" y="191.0" width="110" height="12" fill="url(#shinek)" style="animation-delay:1.26s"/></g>
      <text class="mk" x="612" y="198" fill="#f0f6fc" text-anchor="end" font-weight="600">35%</text>
      <text class="mk" x="644" y="198" fill="#6e7681">TCP/IP · subnetting · DNS — studying</text>
      <text class="mk" x="28" y="232" fill="#8b949e">HTML / CSS</text>
      <clipPath id="c4"><rect x="168" y="225.0" width="120.0" height="12" rx="6.0"/></clipPath>
      <rect x="168" y="227.0" width="400" height="12" rx="6.0" fill="#000000" fill-opacity="0.45"/>
      <rect x="168" y="225.0" width="400" height="12" rx="6.0" fill="#161b22"/>
      <rect x="168" y="225.0" width="400" height="12" rx="6.0" fill="url(#trackk)"/>
      <path d="M268.0 225.0v12" stroke="#ffffff" stroke-opacity="0.05"/>
      <path d="M368.0 225.0v12" stroke="#ffffff" stroke-opacity="0.05"/>
      <path d="M468.0 225.0v12" stroke="#ffffff" stroke-opacity="0.05"/>
      <rect x="168" y="225.0" width="120.0" height="12" rx="6.0" fill="url(#fillk)"/>
      <rect x="168" y="225.0" width="120.0" height="12" rx="6.0" fill="url(#glossk)"/>
      <g clip-path="url(#c4)"><rect class="sh" x="58" y="225.0" width="110" height="12" fill="url(#shinek)" style="animation-delay:1.68s"/></g>
      <text class="mk" x="612" y="232" fill="#f0f6fc" text-anchor="end" font-weight="600">30%</text>
      <text class="mk" x="644" y="232" fill="#6e7681">layout · responsive basics</text>
      <text class="mk" x="28" y="266" fill="#8b949e">C / C++</text>
      <clipPath id="c5"><rect x="168" y="259.0" width="100.0" height="12" rx="6.0"/></clipPath>
      <rect x="168" y="261.0" width="400" height="12" rx="6.0" fill="#000000" fill-opacity="0.45"/>
      <rect x="168" y="259.0" width="400" height="12" rx="6.0" fill="#161b22"/>
      <rect x="168" y="259.0" width="400" height="12" rx="6.0" fill="url(#trackk)"/>
      <path d="M268.0 259.0v12" stroke="#ffffff" stroke-opacity="0.05"/>
      <path d="M368.0 259.0v12" stroke="#ffffff" stroke-opacity="0.05"/>
      <path d="M468.0 259.0v12" stroke="#ffffff" stroke-opacity="0.05"/>
      <rect x="168" y="259.0" width="100.0" height="12" rx="6.0" fill="url(#fillk)"/>
      <rect x="168" y="259.0" width="100.0" height="12" rx="6.0" fill="url(#glossk)"/>
      <g clip-path="url(#c5)"><rect class="sh" x="58" y="259.0" width="110" height="12" fill="url(#shinek)" style="animation-delay:2.10s"/></g>
      <text class="mk" x="612" y="266" fill="#f0f6fc" text-anchor="end" font-weight="600">25%</text>
      <text class="mk" x="644" y="266" fill="#6e7681">pointers · memory — university level</text>
      <path d="M28 294h944" stroke="#30363d" stroke-opacity="0.5"/>
      <text class="mk" x="28" y="318" font-size="12" fill="#484f58"># not on this list: <tspan fill="#6e7681">rust · kotlin · dart</tspan> — those repos were AI-written, I can read them, not write them</text>
      <text class="mk" x="28" y="340" font-size="12" fill="#484f58"># next up: <tspan fill="#6e7681">networking depth · security basics · a little IoT</tspan></text>
    </g>
    <rect x="0" y="352" width="1000" height="4" fill="url(#rulek)"/>
  </g>
  <rect x="0.5" y="0.5" width="999" height="355" rx="14" fill="none"
        stroke="#30363d" stroke-opacity="0.85"/>
</svg>
